<?xml version="1.0" standalone="no"?>
<!DOCTYPE svg PUBLIC "-//W3C//DTD SVG 20010904//EN"
 "http://www.w3.org/TR/2001/REC-SVG-20010904/DTD/svg10.dtd">
<svg version="1.0" xmlns="http://www.w3.org/2000/svg"
 width="2553.000000pt" height="945.000000pt" viewBox="0 0 2553.000000 945.000000"
 preserveAspectRatio="xMidYMid meet">

<g transform="translate(0.000000,945.000000) scale(0.100000,-0.100000)"
fill="#000000" stroke="none">
<path d="M10415 7789 c-92 -53 -61 -189 44 -189 54 0 90 32 98 86 4 35 1 46
-23 73 -32 35 -86 49 -119 30z"/>
<path d="M10235 7596 c-34 -34 -41 -71 -22 -112 23 -48 69 -69 118 -55 48 15
69 44 69 97 0 59 -36 94 -97 94 -33 0 -50 -6 -68 -24z"/>
<path d="M11500 7391 c-165 -51 -221 -237 -109 -365 99 -112 273 -100 356 25
35 52 43 140 19 202 -39 104 -165 169 -266 138z"/>
<path d="M17679 7368 c-7 -13 -13 -32 -15 -43 -1 -11 -8 -68 -15 -127 -11 -93
-15 -108 -31 -108 -16 0 -16 3 -6 20 18 28 -1 54 -41 58 -80 8 -211 -71 -211
-128 0 -32 13 -45 84 -80 71 -36 74 -65 12 -126 -35 -35 -50 -44 -66 -39 -23
7 -50 -9 -50 -31 0 -21 30 -44 56 -44 14 0 45 14 69 30 92 63 126 182 66 232
-15 14 -42 30 -60 37 -42 18 -39 35 12 60 48 23 120 30 99 9 -7 -7 -12 -22
-12 -35 0 -19 5 -23 34 -23 l33 0 7 -69 c8 -95 20 -123 49 -119 21 3 22 6 19
93 l-4 90 46 -3 c50 -4 76 9 76 38 0 22 -20 30 -77 30 l-46 0 6 83 c4 46 13
105 21 132 11 33 12 54 5 67 -13 25 -46 23 -60 -4z"/>
<path d="M16318 7223 c-1 -5 -2 -33 -3 -63 0 -30 -5 -112 -9 -182 -8 -111 -7
-130 8 -153 32 -49 94 -23 67 28 -7 14 -11 55 -9 107 l3 84 44 -67 c74 -114
132 -149 193 -116 29 16 55 83 68 178 17 126 -4 202 -48 175 -13 -9 -16 -29
-17 -105 -1 -104 -17 -177 -42 -186 -24 -9 -92 70 -142 165 -22 44 -41 85 -41
91 0 30 -66 70 -72 44z"/>
<path d="M15610 7190 c-169 -36 -302 -186 -317 -357 -11 -135 33 -249 133
-343 200 -186 517 -122 632 128 37 79 43 221 14 304 -55 156 -189 260 -354
272 -35 3 -83 1 -108 -4z"/>
<path d="M18564 7154 c-61 -22 -124 -79 -124 -113 0 -32 17 -50 76 -79 59 -30
69 -45 54 -82 -7 -17 -28 -43 -46 -60 -27 -23 -40 -28 -64 -24 -26 6 -30 3
-36 -21 -5 -21 -2 -31 11 -42 38 -27 87 -9 146 54 47 49 59 73 59 120 0 51
-20 78 -81 109 -41 20 -48 28 -39 39 17 20 94 48 138 49 27 1 38 6 40 19 9 46
-52 60 -134 31z"/>
<path d="M17230 7143 c-46 -17 -108 -101 -126 -173 -8 -34 -17 -47 -38 -54
-38 -14 -49 3 -50 76 -1 57 -3 63 -23 66 -16 2 -26 -5 -39 -30 -44 -85 -114
-146 -155 -133 -20 7 -21 13 -18 94 l4 86 -25 0 c-31 0 -49 -44 -49 -127 -1
-47 3 -62 25 -87 21 -26 33 -31 67 -31 42 0 91 23 135 63 19 17 22 18 22 4 0
-31 46 -50 106 -44 37 4 63 1 82 -9 41 -21 98 -17 187 14 65 22 81 32 83 50 5
34 -22 38 -97 13 -79 -25 -151 -28 -151 -6 0 8 7 15 17 15 29 0 101 49 122 84
49 79 1 158 -79 129z m30 -77 c0 -17 -22 -41 -52 -57 -32 -17 -31 -4 2 35 34
38 50 45 50 22z"/>
<path d="M18250 7099 c-51 -30 -119 -98 -141 -141 -21 -42 -25 -108 -7 -126
25 -25 71 -13 128 33 58 48 70 53 70 32 0 -8 11 -24 25 -37 20 -19 32 -22 67
-18 68 8 123 38 123 68 0 29 -20 31 -93 10 -23 -7 -46 -10 -49 -6 -3 3 -9 23
-12 43 -5 33 -10 38 -36 41 -24 2 -44 -8 -98 -53 -57 -47 -67 -52 -67 -34 0
12 25 45 60 81 60 59 60 59 112 56 48 -3 53 -1 56 19 7 49 -76 69 -138 32z"/>
<path d="M17864 7072 c-23 -16 -29 -44 -24 -124 5 -75 7 -83 26 -86 17 -2 26
6 40 35 26 51 98 95 160 97 54 1 77 23 55 50 -21 25 -88 19 -153 -13 l-58 -28
0 27 c0 14 -5 31 -12 38 -14 14 -19 14 -34 4z"/>
<path d="M10965 6851 c-150 -38 -219 -202 -141 -335 39 -66 93 -99 171 -104
82 -5 128 11 179 62 133 133 54 357 -134 379 -25 3 -58 2 -75 -2z"/>
<path d="M11493 6846 c-58 -19 -99 -51 -128 -100 -89 -151 17 -336 191 -336
131 1 224 92 224 220 0 151 -147 262 -287 216z"/>
<path d="M17235 6694 c-362 -40 -658 -175 -890 -408 -145 -145 -240 -299 -307
-491 l-27 -80 -1 208 0 207 -315 0 -315 0 0 -1035 0 -1035 315 0 315 0 1 493
0 492 28 -80 c175 -505 621 -840 1194 -896 440 -43 856 89 1140 360 86 82 171
185 165 202 -2 5 -117 72 -257 149 l-254 140 -61 -57 c-167 -154 -322 -213
-565 -213 -261 0 -444 71 -598 233 -128 135 -193 302 -193 496 0 217 71 383
223 528 152 145 312 202 560 203 253 0 406 -57 573 -212 l60 -57 255 139 c140
77 255 144 257 150 6 17 -72 111 -162 198 -181 174 -411 291 -673 342 -106 21
-371 34 -468 24z"/>
<path d="M13390 6335 l0 -315 303 -2 302 -3 3 -977 2 -978 325 0 325 0 0 980
0 980 310 0 310 0 0 315 0 315 -940 0 -940 0 0 -315z"/>
<path d="M10431 6308 c-164 -29 -237 -231 -130 -361 105 -127 306 -102 375 47
33 70 31 129 -4 197 -47 91 -139 135 -241 117z"/>
<path d="M12060 6310 c-130 -24 -213 -157 -176 -283 47 -162 244 -214 369 -98
46 42 67 93 67 161 0 142 -122 246 -260 220z"/>
<path d="M12605 6310 c-111 -17 -185 -106 -185 -225 0 -122 97 -218 220 -218
69 0 116 20 164 69 148 152 13 405 -199 374z"/>
<path d="M2375 5899 c-377 -47 -720 -308 -861 -654 -67 -163 -78 -221 -78
-415 0 -157 3 -185 27 -272 110 -411 435 -714 850 -793 97 -18 286 -19 387 -1
270 49 509 199 680 427 243 326 276 784 81 1145 -213 394 -644 618 -1086 563z"/>
<path d="M10903 5741 c-182 -107 -130 -377 80 -416 88 -17 199 44 238 129 43
94 7 221 -79 281 -37 25 -55 30 -115 33 -65 3 -77 0 -124 -27z"/>
<path d="M12545 5751 c-81 -37 -125 -111 -125 -207 0 -108 71 -193 181 -215
217 -45 355 229 192 383 -61 58 -170 75 -248 39z"/>
<path d="M13083 5749 c-79 -39 -123 -112 -123 -201 1 -170 178 -276 330 -198
165 85 151 332 -22 405 -53 22 -134 19 -185 -6z"/>
<path d="M10369 5202 c-137 -72 -160 -254 -45 -360 93 -85 216 -82 306 8 89
88 93 212 12 302 -74 82 -176 101 -273 50z"/>
<path d="M10932 5217 c-51 -19 -98 -62 -122 -112 -31 -65 -26 -165 13 -223 57
-87 179 -124 273 -83 93 42 137 107 138 206 1 158 -152 266 -302 212z"/>
<path d="M11449 5202 c-192 -100 -139 -389 76 -419 201 -27 330 213 197 368
-71 82 -176 102 -273 51z"/>
<path d="M12019 5202 c-137 -72 -160 -254 -45 -360 93 -85 216 -82 306 8 89
88 93 212 12 302 -74 82 -176 101 -273 50z"/>
<path d="M10909 4662 c-76 -40 -112 -94 -117 -176 -5 -83 11 -129 62 -180 142
-142 381 -41 380 159 -1 97 -44 164 -134 204 -64 29 -126 27 -191 -7z"/>
<path d="M11486 4680 c-89 -27 -156 -120 -156 -216 0 -204 254 -301 388 -149
85 97 82 216 -8 305 -62 63 -142 84 -224 60z"/>
<path d="M12046 4675 c-125 -44 -181 -195 -118 -316 72 -137 254 -160 360 -45
85 93 82 216 -8 306 -66 67 -148 86 -234 55z"/>
<path d="M11488 4139 c-53 -15 -123 -81 -143 -134 -25 -64 -17 -151 18 -204
78 -117 247 -136 346 -39 51 49 65 85 65 158 0 68 -16 113 -58 158 -49 55
-151 82 -228 61z"/>
<path d="M12058 4139 c-49 -14 -117 -74 -139 -123 -43 -94 -7 -221 79 -280 96
-67 250 -37 313 62 112 177 -51 397 -253 341z"/>
<path d="M12075 3601 c-165 -42 -230 -235 -124 -365 85 -102 267 -103 344 -2
95 125 60 282 -80 354 -29 15 -105 22 -140 13z"/>
<path d="M12870 3588 c-73 -50 -96 -122 -65 -203 32 -85 122 -124 209 -91 52
20 74 42 59 57 -7 7 -23 2 -49 -16 -70 -48 -155 -20 -190 62 -18 42 -18 67 3
110 34 72 127 95 196 48 37 -24 60 -18 36 11 -40 48 -143 59 -199 22z"/>
<path d="M13210 3588 c-77 -53 -99 -138 -58 -218 25 -48 89 -90 138 -90 14 0
46 10 70 23 149 75 96 307 -70 307 -32 0 -57 -7 -80 -22z m151 -31 c64 -43 75
-134 23 -196 -48 -58 -128 -64 -177 -13 -48 50 -58 101 -30 159 33 70 119 94
184 50z"/>
<path d="M13894 3596 c-61 -27 -101 -111 -88 -184 10 -56 76 -118 136 -127 88
-13 158 32 176 113 l10 42 -64 0 c-50 0 -64 -3 -64 -15 0 -11 12 -15 45 -15
31 0 45 -4 45 -14 0 -26 -41 -66 -80 -77 -33 -10 -47 -9 -86 6 -57 22 -84 62
-84 126 0 106 109 161 207 105 44 -25 66 -19 41 11 -33 41 -133 55 -194 29z"/>
<path d="M14670 3590 c-12 -12 -20 -33 -20 -53 0 -28 10 -43 60 -90 66 -63 76
-95 38 -121 -31 -22 -45 -20 -75 10 -18 18 -29 22 -36 15 -15 -15 27 -58 64
-66 31 -7 83 15 93 40 19 49 7 79 -54 136 -59 55 -72 83 -48 107 18 18 39 15
63 -8 19 -18 24 -19 34 -6 9 11 7 18 -15 35 -34 26 -78 27 -104 1z"/>
<path d="M14931 3588 c-109 -74 -100 -232 17 -289 137 -67 278 94 201 230 -30
53 -65 74 -129 79 -45 3 -61 0 -89 -20z m140 -23 c92 -48 89 -189 -5 -238 -95
-49 -205 46 -176 153 23 86 104 124 181 85z"/>
<path d="M16030 3588 c-94 -64 -108 -178 -32 -257 29 -31 47 -41 85 -46 74
-11 180 36 150 66 -8 8 -20 4 -43 -12 -23 -18 -45 -24 -81 -24 -43 0 -53 4
-85 36 -117 117 31 297 168 204 38 -26 62 -18 37 11 -40 48 -143 59 -199 22z"/>
<path d="M16463 3590 c-93 -56 -104 -190 -22 -264 44 -41 95 -53 149 -37 42
12 96 67 106 107 11 42 -2 120 -24 151 -43 61 -145 82 -209 43z m170 -48 c41
-41 49 -120 17 -170 -44 -70 -136 -78 -197 -17 -30 30 -33 39 -33 90 0 54 3
60 40 97 38 39 42 40 91 36 40 -4 58 -12 82 -36z"/>
<path d="M18682 3593 c-48 -23 -75 -67 -80 -130 -5 -64 9 -103 53 -142 59 -51
164 -50 214 3 30 32 10 44 -27 16 -118 -87 -269 51 -192 177 40 66 142 83 196
32 18 -17 27 -20 36 -11 15 15 -2 35 -46 56 -43 20 -112 20 -154 -1z"/>
<path d="M13510 3445 c0 -131 2 -155 15 -155 12 0 15 20 15 118 l0 117 38 -45
c20 -24 65 -78 100 -118 l62 -74 0 156 c0 130 -2 156 -15 156 -12 0 -15 -22
-17 -112 l-3 -112 -93 112 c-52 62 -96 112 -98 112 -2 0 -4 -70 -4 -155z"/>
<path d="M14180 3445 c0 -131 2 -155 15 -155 12 0 15 14 15 69 0 39 4 72 8 75
5 3 33 -28 63 -69 32 -44 61 -75 72 -75 21 0 20 1 -41 85 l-44 60 33 7 c65 13
89 80 48 132 -19 24 -26 26 -95 26 l-74 0 0 -155z m150 106 c26 -50 -1 -81
-71 -81 l-49 0 0 50 0 50 55 0 c43 0 56 -4 65 -19z"/>
<path d="M14430 3445 l0 -155 90 0 c73 0 90 3 90 15 0 12 -15 15 -75 15 l-75
0 0 60 0 59 73 3 c56 2 72 6 72 18 0 12 -16 16 -72 18 l-73 3 0 44 0 44 72 3
c46 2 73 7 76 16 3 9 -19 12 -87 12 l-91 0 0 -155z"/>
<path d="M15350 3447 c0 -131 2 -157 15 -157 12 0 15 22 17 115 l3 114 95
-114 c52 -63 95 -115 97 -115 2 0 3 70 3 155 0 131 -2 155 -15 155 -12 0 -15
-20 -15 -116 l0 -116 -86 104 c-47 56 -92 110 -100 118 -12 12 -14 -7 -14
-143z"/>
<path d="M15739 3535 c-17 -38 -48 -107 -70 -153 -21 -47 -39 -86 -39 -88 0
-2 7 -4 16 -4 9 0 24 21 37 50 l22 50 68 0 69 0 21 -50 c14 -33 27 -50 39 -50
15 0 14 8 -13 68 -17 37 -47 103 -66 147 -19 44 -39 84 -44 89 -5 6 -21 -19
-40 -59z m81 -102 c0 -9 -15 -13 -45 -13 -25 0 -45 4 -45 9 0 5 9 31 21 58
l21 48 23 -45 c13 -25 24 -51 25 -57z"/>
<path d="M16300 3445 c0 -131 2 -155 15 -155 13 0 15 24 15 155 0 131 -2 155
-15 155 -13 0 -15 -24 -15 -155z"/>
<path d="M16760 3445 c0 -130 2 -155 15 -155 12 0 15 22 17 118 l3 117 99
-117 c54 -65 100 -118 102 -118 2 0 4 70 4 155 0 130 -2 155 -15 155 -12 0
-15 -22 -17 -116 l-3 -117 -95 116 c-52 64 -98 116 -102 116 -5 1 -8 -69 -8
-154z"/>
<path d="M17117 3453 c-37 -82 -67 -151 -67 -155 0 -5 6 -8 13 -8 8 0 24 23
37 50 l23 50 67 0 68 0 21 -50 c13 -30 28 -50 37 -50 10 0 14 6 10 15 -23 61
-131 295 -136 295 -4 0 -36 -66 -73 -147z m98 30 c11 -26 22 -51 23 -55 2 -4
-20 -8 -48 -8 -28 0 -50 3 -48 8 2 4 11 28 22 55 10 26 21 47 25 47 3 0 15
-21 26 -47z"/>
<path d="M17380 3445 l0 -155 75 0 c60 0 75 3 75 15 0 12 -13 15 -60 15 l-60
0 0 140 c0 118 -2 140 -15 140 -13 0 -15 -24 -15 -155z"/>
<path d="M17690 3445 l0 -155 73 0 c86 0 132 20 159 71 24 45 23 119 -2 168
-26 52 -70 71 -159 71 l-71 0 0 -155z m160 110 c43 -22 63 -68 57 -128 -7 -73
-38 -100 -122 -105 l-65 -4 0 126 0 126 50 0 c28 0 64 -7 80 -15z"/>
<path d="M18000 3445 l0 -155 85 0 c69 0 85 3 85 15 0 12 -14 15 -70 15 l-70
0 0 60 0 60 70 0 c63 0 70 2 70 20 0 18 -7 20 -70 20 l-70 0 0 45 0 45 70 0
c56 0 70 3 70 15 0 12 -16 15 -85 15 l-85 0 0 -155z"/>
<path d="M18310 3585 c0 -10 11 -15 35 -15 l35 0 0 -140 c0 -118 2 -140 15
-140 13 0 15 22 15 140 l0 140 30 0 c20 0 30 5 30 15 0 12 -16 15 -80 15 -64
0 -80 -3 -80 -15z"/>
<path d="M18510 3445 c0 -131 2 -155 15 -155 13 0 15 24 15 155 0 131 -2 155
-15 155 -13 0 -15 -24 -15 -155z"/>
<path d="M2410 3324 c-280 -40 -463 -124 -642 -292 -176 -166 -295 -395 -329
-631 -29 -203 9 -440 100 -626 131 -267 364 -469 646 -558 248 -78 545 -58
780 52 277 130 495 383 579 674 133 458 -41 936 -440 1206 -190 128 -491 204
-694 175z"/>
<path d="M0 2245 l0 -1077 58 6 c93 11 239 53 328 95 231 109 441 324 535 550
253 607 -69 1284 -696 1466 -50 14 -120 29 -157 32 l-68 6 0 -1078z"/>
<path d="M14318 3033 c838 -2 2206 -2 3040 0 834 1 149 2 -1523 2 -1672 0
-2355 -1 -1517 -2z"/>
<path d="M14547 2840 c-14 -23 -15 -30 -4 -30 7 0 26 14 42 30 l29 30 -25 0
c-17 0 -30 -10 -42 -30z"/>
<path d="M19027 2840 c-14 -23 -15 -30 -4 -30 7 0 26 14 42 30 l29 30 -25 0
c-17 0 -30 -10 -42 -30z"/>
<path d="M12180 2776 c0 -9 12 -16 33 -18 l32 -3 3 -137 c2 -114 5 -138 17
-138 13 0 15 23 15 140 l0 140 36 0 c24 0 34 4 32 13 -3 8 -32 13 -86 15 -67
2 -82 0 -82 -12z"/>
<path d="M12390 2635 l0 -155 85 0 c69 0 85 3 85 15 0 12 -14 15 -70 15 l-70
0 0 60 0 60 70 0 c56 0 70 3 70 15 0 12 -14 15 -70 15 l-70 0 0 50 0 50 70 0
c56 0 70 3 70 15 0 12 -16 15 -85 15 l-85 0 0 -155z"/>
<path d="M12669 2766 c-116 -79 -77 -268 60 -291 69 -12 183 36 155 65 -8 8
-21 5 -49 -14 -95 -65 -212 4 -202 118 4 42 10 55 41 83 30 27 44 33 82 33 29
0 61 -8 85 -22 41 -23 61 -19 39 7 -42 51 -151 61 -211 21z"/>
<path d="M13158 2673 l-3 -116 -95 111 c-52 62 -98 112 -102 112 -5 0 -8 -67
-8 -150 0 -125 2 -150 15 -150 12 0 15 22 17 115 l3 115 99 -115 c54 -63 100
-115 102 -115 2 0 4 70 4 155 0 130 -2 155 -15 155 -12 0 -15 -22 -17 -117z"/>
<path d="M13320 2768 c-43 -30 -70 -82 -70 -136 0 -119 118 -194 224 -142 153
73 101 300 -69 300 -38 0 -61 -6 -85 -22z m149 -22 c42 -22 61 -58 61 -117 0
-44 -4 -55 -33 -84 -89 -89 -225 -26 -214 99 8 93 103 145 186 102z"/>
<path d="M13627 2783 c-4 -3 -7 -73 -7 -155 l0 -148 75 0 c60 0 75 3 75 15 0
12 -13 15 -60 15 l-60 0 0 140 c0 128 -4 152 -23 133z"/>
<path d="M13880 2767 c-106 -71 -97 -223 16 -277 138 -67 278 83 205 220 -41
79 -149 106 -221 57z m166 -40 c74 -67 51 -184 -42 -216 -52 -18 -88 -9 -131
34 -28 28 -33 40 -33 79 0 87 45 135 128 136 34 0 49 -6 78 -33z"/>
<path d="M14252 2774 c-49 -25 -75 -69 -80 -133 -3 -46 0 -62 20 -91 69 -104
232 -102 282 4 9 19 16 43 16 55 0 19 -6 21 -65 21 -51 0 -65 -3 -65 -15 0
-11 12 -15 45 -15 37 0 45 -3 45 -19 0 -27 -47 -70 -85 -77 -74 -13 -152 42
-162 113 -15 109 106 179 208 121 28 -15 42 -19 50 -11 7 7 1 17 -22 34 -43
31 -139 37 -187 13z"/>
<path d="M14540 2635 c0 -131 2 -155 15 -155 13 0 15 24 15 155 0 131 -2 155
-15 155 -13 0 -15 -24 -15 -155z"/>
<path d="M14957 2772 c-10 -10 -17 -34 -17 -52 0 -28 10 -42 60 -88 66 -60 75
-90 38 -116 -31 -22 -45 -20 -75 10 -18 18 -29 22 -36 15 -15 -15 27 -58 64
-66 31 -7 83 15 93 40 21 55 3 89 -87 163 -57 47 -13 108 49 67 35 -23 51 -8
23 21 -28 30 -88 33 -112 6z"/>
<path d="M15277 2783 c-4 -3 -7 -73 -7 -155 l0 -148 70 0 c114 0 171 37 185
119 15 92 -34 164 -124 181 -62 12 -115 13 -124 3z m163 -48 c33 -17 52 -54
54 -103 2 -81 -44 -122 -139 -122 l-55 0 0 126 0 126 57 -7 c32 -4 69 -13 83
-20z"/>
<path d="M15587 2784 c-4 -4 -7 -74 -7 -156 l0 -148 90 0 c73 0 90 3 90 15 0
12 -15 15 -75 15 l-75 0 0 60 0 60 75 0 c60 0 75 3 75 15 0 12 -15 15 -76 15
l-75 0 3 48 3 47 73 3 c52 2 72 6 69 15 -4 13 -158 23 -170 11z"/>
<path d="M15927 2783 c-4 -3 -7 -73 -7 -155 l0 -148 75 0 c60 0 75 3 75 15 0
12 -13 15 -60 15 l-60 0 0 140 c0 128 -4 152 -23 133z"/>
<path d="M16186 2689 c-100 -214 -98 -209 -78 -209 11 0 25 18 39 50 l22 50
66 0 66 0 22 -50 c14 -31 28 -50 39 -50 19 0 16 6 -83 219 l-44 94 -49 -104z
m94 -66 c0 -9 -15 -13 -45 -13 -25 0 -45 3 -45 6 0 3 10 28 22 56 l21 50 23
-43 c13 -24 23 -50 24 -56z"/>
<path d="M16540 2636 c0 -133 2 -156 15 -156 13 0 15 21 13 152 -2 110 -6 152
-15 156 -10 3 -13 -32 -13 -152z"/>
<path d="M16845 2778 c-3 -7 -6 -59 -7 -116 l-3 -102 -94 110 c-51 60 -97 110
-102 110 -5 0 -9 -67 -9 -150 0 -143 1 -150 20 -150 18 0 20 8 22 111 l3 110
79 -91 c44 -51 87 -102 97 -113 18 -21 18 -17 19 136 0 101 -4 157 -10 157 -6
0 -13 -6 -15 -12z"/>
<path d="M16947 2784 c-4 -4 -7 -74 -7 -156 0 -125 2 -148 15 -148 12 0 15 15
15 75 l0 75 65 0 c51 0 65 3 65 15 0 12 -14 15 -66 15 l-65 0 3 48 3 47 63 3
c44 2 62 7 59 15 -4 13 -138 23 -150 11z"/>
<path d="M17210 2767 c-106 -71 -97 -223 16 -277 136 -66 273 78 208 217 -38
79 -152 110 -224 60z m166 -40 c31 -28 37 -41 41 -83 5 -61 -21 -108 -72 -130
-46 -19 -74 -18 -112 6 -45 27 -66 64 -65 115 1 77 50 124 130 125 34 0 49 -6
78 -33z"/>
<path d="M17510 2636 c0 -132 2 -156 15 -156 12 0 15 14 15 70 0 39 4 70 9 70
6 0 34 -31 63 -70 29 -38 61 -69 71 -70 9 0 17 1 17 3 0 2 -22 32 -50 68 l-49
64 36 12 c65 23 83 79 40 129 -20 23 -33 27 -95 32 l-72 5 0 -157z m124 114
c15 -5 28 -20 32 -36 10 -38 -24 -64 -82 -64 l-44 0 0 55 0 55 34 0 c19 0 46
-4 60 -10z"/>
<path d="M18524 2771 c-131 -80 -96 -269 54 -297 59 -11 166 35 148 64 -5 8
-15 6 -35 -9 -90 -66 -215 -4 -213 106 1 78 52 125 136 125 33 0 52 -6 75 -26
26 -21 32 -23 37 -10 8 21 0 31 -40 50 -46 22 -123 21 -162 -3z"/>
<path d="M18797 2783 c-4 -3 -7 -73 -7 -155 0 -125 2 -148 15 -148 13 0 15 24
15 155 0 142 -4 168 -23 148z"/>
<path d="M18950 2768 c-43 -30 -70 -82 -70 -136 0 -119 118 -194 224 -142 112
54 121 207 16 277 -46 32 -125 32 -170 1z m150 -23 c39 -20 60 -63 60 -121 0
-39 -5 -51 -33 -79 -89 -89 -225 -26 -214 99 8 94 103 145 187 101z"/>
<path d="M19458 2674 l-3 -116 -94 111 c-52 61 -98 111 -103 111 -4 0 -8 -67
-8 -150 0 -143 1 -150 20 -150 18 0 20 8 22 111 l3 111 94 -111 c52 -61 96
-111 98 -111 1 0 3 70 3 155 0 130 -2 155 -15 155 -12 0 -15 -22 -17 -116z"/>
<path d="M14682 2630 c-58 -123 -68 -150 -53 -150 11 0 26 18 41 50 l23 50 67
0 66 0 21 -50 c14 -32 27 -50 38 -50 9 0 15 4 13 8 -24 62 -133 292 -138 292
-4 0 -39 -67 -78 -150z m105 30 l21 -50 -49 0 c-27 0 -49 2 -49 5 0 10 44 95
50 95 3 0 16 -22 27 -50z"/>
<path d="M17790 2773 c0 -5 -9 -71 -20 -148 -11 -77 -20 -141 -20 -142 0 -2 6
-3 14 -3 13 0 36 111 36 175 0 49 17 31 64 -71 27 -57 52 -104 56 -104 4 0 29
47 56 105 28 61 51 100 55 93 3 -7 10 -42 13 -78 11 -98 17 -120 33 -120 10 0
13 9 9 33 -3 17 -13 84 -22 147 -9 63 -18 117 -20 119 -2 2 -30 -51 -63 -118
l-60 -122 -61 120 c-55 111 -70 134 -70 114z"/>
<path d="M18231 2718 c-16 -35 -47 -102 -69 -150 -36 -77 -39 -88 -23 -88 13
0 25 16 39 50 l21 50 65 0 66 0 25 -50 c14 -27 32 -50 40 -50 17 0 20 -7 -65
179 -30 66 -59 121 -63 121 -4 0 -21 -28 -36 -62z m42 -106 c-25 -2 -47 -1
-49 1 -2 2 6 27 18 56 l22 52 27 -53 27 -53 -45 -3z"/>
<path d="M13300 2302 c0 -4 20 -41 45 -81 43 -69 45 -77 45 -147 0 -59 3 -74
15 -74 12 0 15 15 15 73 0 67 3 77 45 147 49 82 52 90 30 90 -7 0 -31 -30 -51
-66 l-37 -67 -41 67 c-36 57 -66 84 -66 58z"/>
<path d="M13680 2155 l0 -155 75 0 c60 0 75 3 75 15 0 12 -13 15 -60 15 l-60
0 0 140 c0 118 -2 140 -15 140 -13 0 -15 -24 -15 -155z"/>
<path d="M14190 2290 c-33 -33 -26 -73 22 -117 22 -21 49 -46 60 -55 24 -24
24 -74 -1 -88 -31 -16 -50 -12 -76 16 -13 14 -29 23 -35 19 -16 -10 6 -42 41
-61 60 -30 123 7 123 73 0 32 -8 43 -62 92 -34 31 -62 63 -62 72 0 37 49 52
81 23 28 -26 44 -6 18 22 -28 30 -81 32 -109 4z"/>
<path d="M14584 2300 c-32 -13 -82 -77 -89 -114 -19 -99 60 -196 160 -196 33
0 108 31 119 49 16 25 -7 30 -37 9 -24 -17 -46 -23 -85 -23 -49 0 -57 3 -87
37 -42 45 -52 92 -31 141 31 75 143 103 204 52 32 -27 55 -18 31 11 -32 39
-129 57 -185 34z"/>
<path d="M14924 2300 c-38 -15 -82 -77 -89 -124 -6 -37 -3 -55 16 -93 75 -152
299 -97 299 73 0 50 -40 117 -84 138 -36 17 -107 20 -142 6z m140 -41 c56 -44
70 -108 38 -168 -40 -74 -135 -91 -193 -35 -89 85 -38 224 80 224 34 0 56 -6
75 -21z"/>
<path d="M15594 2295 c-4 -8 -5 -66 -3 -129 4 -105 6 -117 28 -140 47 -50 139
-39 161 20 15 40 13 267 -2 262 -9 -3 -14 -42 -18 -131 -4 -111 -7 -128 -25
-141 -27 -21 -58 -20 -86 3 -23 18 -24 27 -27 145 -3 115 -13 152 -28 111z"/>
<path d="M16075 2298 c-3 -7 -6 -59 -7 -116 l-3 -102 -94 110 c-51 60 -95 110
-97 110 -2 0 -4 -67 -4 -150 0 -125 2 -150 15 -150 12 0 15 21 17 111 l3 112
80 -94 c44 -51 88 -102 97 -114 17 -19 17 -13 18 138 0 101 -4 157 -10 157 -6
0 -13 -6 -15 -12z"/>
<path d="M16170 2155 c0 -131 2 -155 15 -155 13 0 15 24 15 155 0 131 -2 155
-15 155 -13 0 -15 -24 -15 -155z"/>
<path d="M16332 2290 c-67 -41 -93 -138 -56 -216 41 -86 188 -109 253 -40 29
31 10 45 -25 17 -54 -42 -137 -36 -184 14 -27 29 -38 102 -20 145 28 68 140
94 198 45 24 -20 32 -22 41 -11 12 14 -4 33 -46 55 -36 18 -124 14 -161 -9z"/>
<path d="M16985 2292 c-43 -28 -62 -52 -74 -97 -30 -116 64 -219 184 -201 50
8 115 54 94 67 -7 4 -24 -1 -39 -13 -87 -64 -210 -6 -210 99 0 86 48 133 134
133 33 0 52 -6 74 -25 25 -21 32 -23 41 -11 9 11 5 19 -21 37 -45 32 -141 38
-183 11z"/>
<path d="M17257 2303 c-4 -3 -7 -73 -7 -155 0 -125 2 -148 15 -148 13 0 15 24
15 155 0 142 -4 168 -23 148z"/>
<path d="M17412 2289 c-90 -58 -95 -197 -10 -263 81 -61 191 -35 237 57 54
110 -21 227 -146 227 -32 0 -59 -8 -81 -21z m159 -32 c124 -83 15 -281 -124
-224 -123 52 -86 247 48 247 27 0 54 -8 76 -23z"/>
<path d="M17925 2298 c-3 -7 -6 -59 -7 -116 l-3 -102 -94 110 c-51 60 -95 110
-97 110 -2 0 -4 -67 -4 -150 0 -125 2 -150 15 -150 12 0 15 21 17 111 l3 112
80 -94 c44 -51 88 -102 97 -114 17 -19 17 -13 18 138 0 101 -4 157 -10 157 -6
0 -13 -6 -15 -12z"/>
<path d="M18027 2303 c-4 -3 -7 -73 -7 -155 l0 -148 90 0 c73 0 90 3 90 15 0
12 -15 15 -75 15 l-75 0 0 60 0 60 75 0 c60 0 75 3 75 15 0 12 -15 15 -76 15
l-75 0 3 48 3 47 73 3 c55 2 72 6 72 17 0 12 -17 15 -83 15 -46 0 -87 -3 -90
-7z"/>
<path d="M18257 2292 c-10 -10 -17 -34 -17 -52 0 -28 10 -42 60 -88 66 -60 75
-90 38 -116 -31 -22 -45 -20 -75 10 -18 18 -29 22 -36 15 -15 -15 27 -58 64
-66 31 -7 83 15 93 40 18 49 7 78 -55 135 -48 44 -60 62 -57 81 4 30 39 37 74
14 35 -23 51 -8 23 21 -28 30 -88 33 -112 6z"/>
<path d="M13920 2159 c-80 -173 -75 -159 -55 -159 11 0 24 18 38 50 l21 50 66
0 67 0 23 -50 c13 -27 29 -50 37 -50 7 0 13 4 13 8 0 15 -129 287 -138 290 -4
1 -37 -61 -72 -139z m98 26 c12 -25 22 -48 22 -50 0 -3 -22 -5 -49 -5 l-49 0
21 50 c11 28 24 50 27 50 3 0 16 -20 28 -45z"/>
<path d="M15237 2290 c-3 -8 -14 -77 -25 -153 -16 -122 -17 -137 -3 -135 11 2
19 27 28 98 7 51 14 98 16 103 1 5 26 -38 55 -97 28 -58 54 -106 57 -106 3 0
28 47 55 105 27 58 51 105 54 105 2 0 10 -47 16 -105 9 -76 17 -105 26 -105 8
0 14 10 14 23 -1 33 -36 266 -41 272 -3 2 -32 -50 -64 -116 l-60 -120 -61 123
c-37 72 -64 117 -67 108z"/>
<path d="M16652 2150 c-58 -123 -68 -150 -53 -150 11 0 26 18 41 50 l23 50 67
0 66 0 21 -50 c14 -32 27 -50 38 -50 9 0 15 4 13 8 -24 62 -133 292 -138 292
-4 0 -39 -67 -78 -150z m105 30 l21 -50 -49 0 c-27 0 -49 2 -49 5 0 10 44 95
50 95 3 0 16 -22 27 -50z"/>
<path d="M13110 1186 l0 -276 55 0 55 0 -2 273 -3 272 -52 3 -53 3 0 -275z"/>
<path d="M13403 1440 c-75 -34 -104 -118 -67 -196 21 -44 60 -67 168 -98 48
-14 95 -31 102 -37 24 -20 17 -76 -11 -95 -66 -43 -156 -22 -182 44 -14 36
-15 37 -64 34 -53 -4 -55 -6 -37 -64 15 -49 74 -103 130 -119 51 -13 156 -6
195 15 84 43 116 141 74 224 -23 46 -70 73 -176 102 -44 12 -88 28 -97 37 -43
39 -4 87 72 87 52 0 84 -19 95 -55 5 -15 16 -19 56 -19 46 0 49 1 49 26 0 42
-39 94 -84 115 -56 25 -166 25 -223 -1z"/>
<path d="M13902 1439 c-55 -28 -87 -84 -79 -142 10 -77 68 -123 189 -153 113
-27 142 -65 94 -121 -21 -24 -31 -28 -79 -28 -61 0 -90 18 -112 70 -12 27 -16
29 -61 26 -27 -1 -50 -4 -52 -6 -2 -2 2 -21 8 -44 25 -95 120 -149 241 -138
117 10 171 60 177 162 5 102 -35 142 -186 184 -38 10 -79 24 -90 30 -26 14
-37 48 -22 66 17 20 78 36 109 28 31 -7 71 -41 71 -60 0 -9 16 -13 56 -13 l56
0 -7 33 c-19 83 -87 126 -200 127 -52 0 -81 -6 -113 -21z"/>
<path d="M14337 1454 c-4 -4 -7 -128 -7 -276 l0 -268 50 0 50 0 2 177 3 177
106 -174 106 -175 57 -3 56 -3 -2 273 -3 273 -47 3 -48 3 0 -182 c0 -128 -3
-180 -10 -173 -6 6 -57 87 -113 180 l-102 169 -45 3 c-25 2 -49 0 -53 -4z"/>
<path d="M15220 1449 c-81 -24 -146 -137 -87 -153 45 -12 77 -7 77 12 0 36 29
62 70 62 60 0 89 -56 59 -113 -7 -12 -54 -66 -105 -120 -91 -94 -124 -143
-138 -199 l-6 -28 180 0 180 0 0 50 0 49 -102 3 -103 3 78 74 c96 92 132 158
125 230 -8 81 -59 128 -145 136 -27 2 -64 0 -83 -6z"/>
<path d="M16055 1448 c-41 -15 -75 -47 -92 -87 -17 -39 -11 -46 40 -54 30 -5
39 -2 44 11 18 50 75 69 107 36 35 -35 5 -106 -49 -116 -15 -2 -21 -12 -23
-41 l-3 -37 40 0 c49 0 71 -26 71 -85 0 -57 -29 -87 -78 -83 -29 2 -41 10 -57
35 -16 26 -27 32 -55 32 -59 1 -66 -10 -41 -63 78 -160 331 -105 334 73 1 56
-19 93 -65 121 -29 18 -30 18 -9 29 49 27 65 112 31 168 -34 56 -129 86 -195
61z"/>
<path d="M16478 1450 c-75 -23 -118 -88 -118 -181 0 -62 30 -123 73 -149 44
-27 116 -27 151 1 22 17 26 18 26 4 0 -35 -23 -105 -40 -120 -26 -24 -82 -16
-95 13 -8 18 -18 22 -58 22 -49 0 -49 0 -42 -27 22 -92 114 -135 210 -99 87
34 125 115 125 270 0 145 -29 213 -110 254 -46 23 -76 26 -122 12z m77 -86
c24 -10 45 -58 45 -104 0 -30 -6 -47 -25 -65 -54 -55 -115 -13 -115 79 0 79
35 113 95 90z"/>
<path d="M17137 1288 c-109 -161 -117 -177 -117 -221 l0 -47 110 0 110 0 0
-55 0 -55 50 0 50 0 0 55 c0 54 0 55 30 55 29 0 30 2 30 45 0 43 -1 45 -30 45
l-30 0 -2 173 -3 172 -40 3 -40 3 -118 -173z m103 -88 l0 -90 -61 0 c-50 0
-60 3 -55 15 7 20 105 165 111 165 3 0 5 -40 5 -90z"/>
<path d="M17977 1288 c-109 -161 -117 -176 -117 -220 l0 -48 110 0 110 0 0
-55 0 -55 50 0 50 0 0 55 c0 54 0 55 30 55 29 0 30 2 30 45 0 43 -1 45 -30 45
l-30 0 -2 173 -3 172 -40 3 -40 3 -118 -173z m103 -88 l0 -90 -61 0 c-50 0
-60 3 -55 15 7 20 105 165 111 165 3 0 5 -40 5 -90z"/>
<path d="M18457 1421 c-14 -22 -51 -54 -81 -73 -53 -32 -55 -35 -56 -76 0 -40
2 -43 23 -37 12 4 41 20 65 36 23 16 45 29 47 29 3 0 5 -88 5 -195 l0 -195 50
0 50 0 0 275 0 275 -39 0 c-34 0 -42 -5 -64 -39z"/>
<path d="M15566 1309 c-15 -78 -26 -143 -24 -144 12 -12 79 -6 101 8 68 44
137 5 137 -79 0 -57 -16 -90 -52 -105 -38 -16 -76 1 -91 41 -11 29 -13 30 -57
24 -25 -4 -47 -8 -49 -10 -10 -9 14 -61 43 -90 41 -41 99 -59 162 -49 99 14
167 126 143 233 -21 94 -77 137 -169 130 l-59 -4 5 30 c10 57 7 56 109 56 l95
0 0 50 0 50 -134 0 -133 0 -27 -141z"/>
<path d="M17520 1442 c0 -5 -11 -69 -25 -142 -13 -74 -23 -135 -22 -136 11
-11 79 -5 100 9 40 26 91 22 116 -9 29 -36 29 -121 1 -151 -41 -45 -103 -36
-123 17 -11 29 -13 30 -57 24 -25 -4 -47 -8 -48 -10 -2 -1 1 -19 8 -38 23 -71
108 -115 196 -101 39 5 57 16 90 49 70 69 81 167 28 248 -34 53 -74 71 -145
66 -58 -4 -58 -4 -53 21 14 65 8 61 110 61 l94 0 0 50 0 50 -135 0 c-74 0
-135 -4 -135 -8z"/>
<path d="M14860 1110 l0 -50 100 0 100 0 0 50 0 50 -100 0 -100 0 0 -50z"/>
<path d="M16800 1110 l0 -50 95 0 95 0 0 50 0 50 -95 0 -95 0 0 -50z"/>
<path d="M4920 735 c-360 -57 -678 -304 -822 -637 -21 -48 -38 -90 -38 -93 0
-3 462 -5 1026 -5 l1026 0 -6 28 c-3 15 -29 72 -56 127 -206 415 -669 652
-1130 580z"/>
<path d="M7525 739 c-370 -50 -700 -300 -847 -641 -21 -48 -38 -90 -38 -93 0
-3 461 -5 1025 -5 721 0 1025 3 1025 11 0 28 -69 171 -122 251 -190 289 -511
470 -858 483 -63 2 -146 0 -185 -6z"/>
</g>
</svg>
