<?xml version="1.0" standalone="no"?>
<!DOCTYPE svg PUBLIC "-//W3C//DTD SVG 20010904//EN"
 "http://www.w3.org/TR/2001/REC-SVG-20010904/DTD/svg10.dtd">
<svg version="1.0" xmlns="http://www.w3.org/2000/svg"
 width="500.000000pt" height="500.000000pt" viewBox="0 0 500.000000 500.000000"
 preserveAspectRatio="xMidYMid meet">

<g transform="translate(0.000000,500.000000) scale(0.100000,-0.100000)"
fill="#000000" stroke="none">
<path d="M960 3615 l0 -686 -55 -112 c-30 -62 -67 -155 -82 -209 -24 -86 -29
-97 -52 -101 -72 -15 -172 -148 -220 -293 -30 -89 -31 -94 -20 -175 28 -207
171 -494 355 -711 l74 -86 0 -271 0 -271 1560 0 1560 0 0 1800 0 1800 -1560 0
-1560 0 0 -685z m3050 -1110 l0 -1735 -1490 0 -1490 0 0 205 0 205 70 -53
c462 -352 1136 -371 1635 -46 312 203 514 485 607 849 27 105 28 120 18 170
-34 158 -131 320 -218 362 l-47 23 -21 86 c-130 523 -595 889 -1129 889 -188
0 -365 -43 -535 -131 -118 -61 -203 -124 -302 -227 l-78 -80 0 609 0 609 1490
0 1490 0 0 -1735z m-1785 871 c263 -70 502 -243 652 -473 95 -146 182 -390
154 -435 -9 -14 -9 -43 -2 -116 9 -79 8 -110 -5 -167 -19 -86 -21 -125 -5
-135 10 -5 5 -30 -18 -98 -66 -198 -170 -355 -325 -490 -230 -201 -514 -294
-829 -271 -446 33 -846 359 -971 793 -24 80 -24 89 -10 103 17 17 16 22 -6
145 -10 50 -10 90 -2 160 6 58 7 97 1 104 -17 21 32 186 86 294 78 157 232
334 370 427 129 86 281 149 432 178 124 23 351 14 478 -19z m-1421 -1252 c3
-9 6 -24 6 -34 0 -41 54 -202 100 -296 145 -298 426 -530 745 -613 623 -163
1249 208 1410 834 20 78 26 90 46 93 57 9 144 -40 174 -99 21 -40 19 -67 -16
-176 -152 -479 -548 -827 -1056 -930 -135 -27 -414 -24 -553 6 -487 105 -866
443 -1029 919 -59 171 -52 227 37 283 53 33 125 41 136 13z"/>
<path d="M1636 4084 c-9 -8 -16 -31 -16 -50 0 -29 5 -36 37 -51 46 -22 57 -53
19 -53 -14 0 -29 7 -34 16 -15 28 -33 8 -20 -22 22 -47 91 -40 104 11 10 39
-4 61 -47 78 -25 10 -39 21 -37 29 7 20 40 22 50 4 12 -22 28 -20 28 2 0 22
-30 52 -53 52 -8 0 -23 -7 -31 -16z"/>
<path d="M2086 4093 c-14 -14 -6 -148 10 -171 22 -32 73 -27 91 8 17 32 13
162 -4 167 -9 3 -13 -18 -15 -73 -2 -61 -7 -79 -21 -88 -26 -16 -37 8 -37 86
0 62 -8 87 -24 71z"/>
<path d="M2395 4075 c-21 -20 -25 -34 -25 -80 0 -46 4 -60 25 -80 13 -14 31
-25 40 -25 9 0 27 11 40 25 21 20 25 34 25 80 0 46 -4 60 -25 80 -13 14 -31
25 -40 25 -9 0 -27 -11 -40 -25z m64 -29 c17 -21 10 -97 -11 -109 -26 -17 -48
9 -48 57 0 58 31 86 59 52z"/>
<path d="M1390 3995 c0 -78 3 -95 15 -95 12 0 15 17 15 95 0 78 -3 95 -15 95
-12 0 -15 -17 -15 -95z"/>
<path d="M1460 3995 c0 -76 3 -95 15 -95 10 0 15 16 17 63 l3 62 25 -62 c17
-44 30 -63 42 -63 16 0 18 11 18 95 0 76 -3 95 -15 95 -10 0 -15 -16 -17 -62
l-3 -63 -25 63 c-17 43 -30 62 -42 62 -16 0 -18 -11 -18 -95z"/>
<path d="M1750 4075 c0 -8 9 -15 20 -15 18 0 20 -7 20 -80 0 -63 3 -80 15 -80
11 0 15 18 17 78 3 71 5 77 26 80 12 2 22 10 22 18 0 11 -15 14 -60 14 -47 0
-60 -3 -60 -15z"/>
<path d="M1890 3995 c0 -78 3 -95 15 -95 12 0 15 17 15 95 0 78 -3 95 -15 95
-12 0 -15 -17 -15 -95z"/>
<path d="M1940 4075 c0 -8 9 -15 20 -15 18 0 20 -7 20 -80 0 -63 3 -80 15 -80
11 0 15 18 17 78 3 71 5 77 26 80 12 2 22 10 22 18 0 11 -15 14 -60 14 -47 0
-60 -3 -60 -15z"/>
<path d="M2220 4076 c0 -8 10 -16 23 -18 20 -3 22 -9 25 -80 2 -60 6 -78 17
-78 12 0 15 17 15 80 0 73 2 80 20 80 11 0 20 7 20 15 0 12 -13 15 -60 15 -45
0 -60 -3 -60 -14z"/>
<path d="M2810 3811 c0 -5 -3 -16 -6 -25 -10 -26 12 -18 24 9 10 21 9 25 -3
25 -8 0 -15 -4 -15 -9z"/>
<path d="M2195 3736 c-48 -49 -37 -161 19 -181 25 -8 31 -6 52 18 13 16 24 32
24 38 0 15 -28 10 -38 -7 -5 -9 -18 -14 -28 -12 -36 6 -31 128 5 128 10 0 21
-7 25 -15 5 -15 36 -21 36 -7 0 17 -31 50 -51 55 -14 4 -29 -2 -44 -17z"/>
<path d="M2489 3741 c-34 -27 -40 -125 -9 -163 26 -34 62 -36 90 -6 31 34 29
130 -5 163 -29 30 -45 31 -76 6z m61 -36 c14 -16 17 -85 6 -104 -9 -15 -39
-14 -54 1 -7 7 -12 27 -12 46 0 61 32 91 60 57z"/>
<path d="M2760 3740 c-25 -25 -34 -61 -27 -111 13 -99 106 -109 127 -14 12 51
-3 109 -33 130 -29 20 -43 19 -67 -5z m69 -52 c21 -63 -15 -120 -54 -88 -17
14 -20 72 -5 101 17 30 47 24 59 -13z"/>
<path d="M2934 3750 c-50 -20 -59 -146 -13 -183 15 -12 30 -16 43 -12 12 4 29
7 39 6 14 0 17 9 17 50 0 48 -1 49 -30 49 -20 0 -30 -5 -30 -15 0 -8 7 -15 16
-15 21 0 14 -34 -9 -38 -10 -2 -24 2 -32 8 -17 14 -20 72 -5 101 13 23 48 25
56 4 7 -17 34 -21 34 -5 0 13 -46 60 -57 59 -4 0 -17 -4 -29 -9z"/>
<path d="M3146 3739 c-53 -42 -39 -170 20 -185 22 -6 32 -2 51 20 13 15 23 31
23 37 0 15 -30 10 -36 -6 -10 -25 -44 -18 -55 13 -7 19 -7 38 1 65 11 39 29
47 50 22 13 -16 40 -21 40 -7 0 16 -30 50 -50 55 -11 3 -30 -3 -44 -14z"/>
<path d="M3285 3735 c-52 -51 -23 -185 40 -185 63 0 92 134 40 185 -13 14 -31
25 -40 25 -9 0 -27 -11 -40 -25z m63 -27 c13 -13 16 -75 6 -102 -3 -9 -16 -16
-29 -16 -26 0 -35 17 -35 69 0 37 14 61 35 61 6 0 16 -5 23 -12z"/>
<path d="M1900 3735 c0 -8 9 -15 20 -15 18 0 20 -7 20 -80 0 -64 3 -80 15 -80
12 0 15 15 15 76 0 67 2 76 20 81 11 3 20 12 20 19 0 10 -15 14 -55 14 -42 0
-55 -3 -55 -15z"/>
<path d="M2040 3655 l0 -95 55 0 c42 0 55 3 55 15 0 11 -11 15 -40 15 -36 0
-40 3 -40 25 0 22 4 25 36 25 28 0 35 3 32 18 -2 11 -13 17 -33 17 -23 1 -31
6 -33 23 -3 19 1 22 32 22 25 0 36 4 36 15 0 11 -12 15 -50 15 l-50 0 0 -95z"/>
<path d="M2320 3656 c0 -82 2 -96 16 -96 14 0 16 10 12 60 -2 33 -3 60 -1 60
2 0 15 -27 30 -60 39 -90 53 -80 53 36 0 70 -3 95 -12 92 -8 -3 -11 -25 -9
-64 3 -68 -7 -65 -37 11 -11 28 -27 51 -36 53 -14 3 -16 -9 -16 -92z"/>
<path d="M2620 3655 l0 -95 50 0 c38 0 50 4 50 15 0 10 -11 15 -35 15 l-35 0
0 80 c0 64 -3 80 -15 80 -12 0 -15 -17 -15 -95z"/>
<path d="M3050 3655 c0 -78 3 -95 15 -95 12 0 15 17 15 95 0 78 -3 95 -15 95
-12 0 -15 -17 -15 -95z"/>
<path d="M3577 3483 c-4 -3 -7 -16 -7 -27 1 -21 1 -21 15 -2 8 11 15 23 15 28
0 10 -14 11 -23 1z"/>
<path d="M2907 3423 c-4 -3 -7 -48 -7 -100 l0 -93 38 0 c20 0 42 4 48 8 21 14
34 51 34 97 0 35 -6 51 -25 70 -23 24 -73 34 -88 18z m77 -49 c11 -30 6 -83
-10 -99 -27 -27 -39 -12 -42 53 -3 60 -2 62 21 62 14 0 28 -7 31 -16z"/>
<path d="M3050 3329 l0 -100 53 3 c38 2 52 7 52 18 0 10 -12 16 -37 18 -33 3
-38 7 -38 28 0 21 5 24 35 24 24 0 35 5 35 15 0 10 -11 15 -35 15 -28 0 -35 4
-35 20 0 16 7 20 35 20 28 0 35 4 35 20 0 17 -7 20 -50 20 l-50 0 0 -101z"/>
<path d="M3247 3423 c-4 -3 -7 -48 -7 -100 l0 -93 50 0 c43 0 50 3 50 20 0 16
-7 20 -35 20 l-35 0 0 80 c0 73 -6 91 -23 73z"/>
<path d="M3377 3424 c-4 -4 -7 -49 -7 -101 l0 -93 55 0 c48 0 55 2 55 20 0 17
-7 20 -41 20 -36 0 -40 2 -37 23 2 17 11 23 36 25 46 5 43 32 -3 32 -28 0 -35
4 -35 20 0 17 7 20 41 20 33 0 40 3 37 18 -2 13 -15 18 -48 20 -25 2 -49 0
-53 -4z"/>
<path d="M3521 3404 c-15 -19 -21 -41 -21 -78 0 -67 20 -96 65 -96 44 0 65 29
65 93 0 48 -13 85 -34 99 -22 15 -55 7 -75 -18z m75 -39 c16 -64 -16 -124 -50
-96 -21 18 -21 94 -1 115 20 19 43 10 51 -19z"/>
<path d="M3664 3417 c-10 -28 1 -180 14 -185 9 -3 12 13 12 59 0 71 9 70 38
-6 11 -28 27 -51 36 -53 15 -3 16 7 14 92 -3 106 -21 132 -26 39 l-4 -58 -28
63 c-28 60 -45 76 -56 49z"/>
<path d="M3780 1389 c0 -5 5 -7 10 -4 6 3 10 8 10 11 0 2 -4 4 -10 4 -5 0 -10
-5 -10 -11z"/>
<path d="M3110 1295 l0 -65 35 0 c24 0 35 5 35 15 0 9 -9 15 -25 15 -16 0 -25
6 -25 15 0 9 9 15 25 15 14 0 25 5 25 10 0 6 -11 10 -25 10 -16 0 -25 6 -25
15 0 9 9 15 25 15 14 0 25 5 25 10 0 6 -16 10 -35 10 l-35 0 0 -65z"/>
<path d="M3200 1295 c0 -62 1 -65 24 -65 44 0 71 64 46 111 -7 12 -21 19 -40
19 l-30 0 0 -65z m56 21 c6 -25 -10 -66 -26 -66 -6 0 -10 20 -10 45 0 33 4 45
15 45 8 0 17 -11 21 -24z"/>
<path d="M3300 1314 c0 -55 14 -84 40 -84 26 0 40 29 40 84 0 64 -18 58 -22
-6 -2 -39 -7 -53 -18 -53 -11 0 -16 14 -18 53 -4 64 -22 70 -22 6z"/>
<path d="M3400 1341 c-22 -43 -5 -111 28 -111 22 0 42 19 42 39 0 11 -4 10
-21 -5 -17 -16 -22 -16 -29 -4 -15 24 -12 70 6 77 9 3 20 0 24 -8 11 -17 24
-5 17 16 -9 22 -54 19 -67 -4z"/>
<path d="M3515 1348 c-11 -34 -25 -95 -25 -108 1 -12 3 -12 14 3 16 21 46 23
46 2 0 -8 5 -15 10 -15 14 0 13 13 -6 76 -15 52 -30 68 -39 42z m25 -54 c0 -8
-4 -14 -10 -14 -5 0 -10 9 -10 21 0 11 5 17 10 14 6 -3 10 -13 10 -21z"/>
<path d="M3602 1348 c-16 -16 -16 -90 0 -106 18 -18 46 -14 58 9 15 27 4 38
-14 14 -18 -25 -36 -10 -36 30 0 39 14 52 36 34 19 -16 30 -4 14 16 -15 18
-41 20 -58 3z"/>
<path d="M3690 1295 c0 -37 4 -65 10 -65 6 0 10 28 10 65 0 37 -4 65 -10 65
-6 0 -10 -28 -10 -65z"/>
<path d="M3742 1348 c-17 -17 -15 -93 3 -108 38 -31 85 26 68 84 -9 34 -48 47
-71 24z m54 -32 c7 -28 -12 -69 -29 -63 -13 4 -22 51 -13 73 9 22 35 16 42
-10z"/>
<path d="M3840 1294 c0 -45 3 -63 11 -58 6 3 9 19 7 35 -6 40 8 36 22 -6 18
-54 30 -42 30 31 0 36 -4 63 -8 60 -5 -3 -7 -19 -4 -36 6 -41 -11 -38 -27 5
-19 54 -31 42 -31 -31z"/>
<path d="M2947 1143 c-4 -3 -7 -19 -7 -34 0 -22 6 -30 25 -35 14 -3 25 -12 25
-20 0 -17 -22 -18 -39 -1 -10 10 -12 8 -9 -8 2 -15 11 -20 33 -20 25 0 31 4
33 27 3 22 -3 30 -29 43 -22 12 -28 20 -21 27 8 8 16 7 27 -2 20 -17 32 -5 15
15 -13 15 -42 20 -53 8z"/>
<path d="M3042 1088 c3 -63 3 -63 33 -63 30 0 30 0 33 63 2 36 -1 62 -7 62 -5
0 -11 -23 -13 -52 -4 -74 -28 -77 -28 -4 0 32 -4 56 -10 56 -7 0 -10 -24 -8
-62z"/>
<path d="M3140 1085 c0 -37 4 -65 10 -65 6 0 10 11 10 24 0 18 6 25 23 28 46
6 29 78 -19 78 -23 0 -24 -3 -24 -65z m48 22 c2 -10 -3 -17 -12 -17 -10 0 -16
9 -16 21 0 24 23 21 28 -4z"/>
<path d="M3220 1085 l0 -65 35 0 c19 0 35 5 35 10 0 6 -11 10 -25 10 -19 0
-25 5 -25 21 0 14 5 19 18 17 11 -2 20 2 21 7 1 6 -8 11 -19 13 -25 4 -21 27
5 27 10 0 20 6 23 13 2 8 -8 12 -32 12 l-36 0 0 -65z"/>
<path d="M3320 1085 c0 -37 4 -65 10 -65 6 0 10 11 10 25 0 16 6 25 15 25 9 0
15 -9 15 -25 0 -14 6 -25 13 -25 8 0 12 17 11 53 -1 66 -7 77 -45 77 l-29 0 0
-65z m49 36 c16 -10 6 -31 -15 -31 -8 0 -14 9 -14 20 0 22 7 25 29 11z"/>
<path d="M3417 1143 c-11 -10 -8 -123 3 -123 6 0 10 28 10 65 0 65 -1 71 -13
58z"/>
<path d="M3461 1136 c-20 -24 -9 -96 16 -113 19 -13 24 -12 42 6 23 23 27 57
9 96 -13 28 -48 34 -67 11z m52 -28 c6 -8 7 -27 3 -42 -9 -37 -40 -31 -44 7
-6 54 17 74 41 35z"/>
<path d="M3560 1085 c0 -37 4 -65 10 -65 6 0 10 11 10 25 0 31 27 34 32 3 6
-44 23 -27 23 25 0 64 -8 77 -46 77 l-29 0 0 -65z m60 24 c0 -12 -29 -24 -37
-16 -3 4 -3 13 0 21 6 16 37 11 37 -5z"/>
<path d="M1591 3241 c-6 -10 -7 -21 -4 -25 4 -4 8 -68 10 -144 1 -75 7 -153
11 -172 6 -22 7 24 4 120 l-5 156 27 17 c14 10 26 26 26 37 0 30 25 24 70 -16
45 -41 106 -130 170 -247 42 -77 42 -80 28 -111 -13 -26 -30 -38 -89 -61 -41
-17 -77 -31 -81 -33 -4 -2 -11 15 -14 38 -5 32 -14 46 -37 61 -17 10 -32 17
-33 16 -1 -1 4 -32 11 -69 12 -66 12 -68 -11 -83 -23 -15 -24 -21 -24 -113 l0
-97 -57 0 c-32 0 -70 -3 -85 -8 l-28 -7 -2 182 c-2 160 -3 167 -5 53 l-3 -130
-80 3 -79 3 -3 -42 c-3 -38 -6 -44 -32 -51 -17 -4 -31 -6 -31 -5 -5 7 21 357
27 362 3 3 2 22 -4 42 -14 52 2 83 44 83 37 0 117 -35 181 -78 62 -42 76 -47
39 -14 -52 46 -168 102 -212 102 -57 0 -74 -22 -66 -87 6 -51 5 -53 -24 -68
-20 -10 -30 -23 -30 -38 0 -45 -20 -303 -26 -334 -7 -38 6 -42 52 -18 16 8 41
15 57 15 23 0 27 -4 27 -28 0 -25 -11 -35 -77 -77 -43 -27 -116 -74 -163 -105
l-85 -55 160 -5 160 -5 3 -28 c3 -25 7 -28 35 -25 27 2 33 8 35 31 3 22 8 27
32 27 l29 0 3 128 3 127 29 0 c20 0 35 -9 53 -31 l24 -32 -43 -14 -43 -15 -5
-114 -5 -114 -57 -91 c-113 -183 -178 -333 -178 -416 0 -29 6 -41 25 -54 22
-14 32 -15 66 -5 22 7 56 22 77 34 20 12 53 22 72 22 30 0 35 4 38 26 2 15 17
39 33 55 l30 29 -8 -70 c-20 -176 -2 -294 46 -310 57 -18 161 97 267 292 36
67 42 73 71 73 29 0 34 -6 78 -87 97 -180 182 -277 238 -271 48 5 67 50 67
161 l0 89 33 -22 c62 -41 172 -90 203 -90 24 0 38 8 58 34 32 43 32 46 1 92
-29 43 -32 63 -7 62 9 -1 43 15 75 37 l57 38 0 128 0 128 -112 3 -113 3 -3
282 -2 283 -28 6 c-15 3 -44 10 -66 16 -21 5 -49 7 -62 4 l-24 -6 0 134 c0
124 -2 136 -20 146 -18 10 -19 18 -13 123 10 203 -36 271 -132 195 -16 -12
-39 -21 -50 -20 -29 4 -49 -22 -41 -52 4 -18 -2 -36 -20 -63 -14 -21 -44 -71
-66 -111 l-41 -74 -48 92 c-60 114 -129 211 -173 245 -42 32 -120 36 -135 6z
m673 -35 c19 -25 21 -41 20 -152 -1 -68 -4 -127 -8 -131 -3 -4 -21 1 -40 9
-33 16 -35 16 -147 -32 -62 -27 -117 -46 -121 -44 -17 10 -7 45 33 116 60 105
98 158 114 158 8 0 19 9 25 20 6 11 8 20 4 20 -12 0 21 33 51 52 36 22 43 20
69 -16z m-314 -366 c-18 -11 -22 -7 -14 14 5 13 10 14 18 6 8 -8 7 -13 -4 -20z
m-723 -37 c-3 -10 -5 -4 -5 12 0 17 2 24 5 18 2 -7 2 -21 0 -30z m4 -52 c11
17 12 -60 2 -178 -4 -58 -10 -84 -21 -88 -11 -4 -13 1 -8 27 3 18 7 85 8 148
1 63 3 106 6 96 3 -15 6 -16 13 -5z m224 -171 c0 -10 -13 -16 -42 -18 l-43 -3
0 -90 c0 -49 4 -89 8 -89 4 0 7 23 6 50 -2 31 1 48 7 44 5 -3 16 0 24 6 13 11
15 -6 15 -124 l0 -136 -207 0 c-113 0 -204 2 -201 5 12 13 272 175 280 175 4
0 8 -10 8 -23 0 -17 -17 -33 -67 -64 l-68 -43 108 0 c64 0 107 4 108 10 1 6 1
19 1 30 0 46 -3 60 -12 60 -5 0 -10 -20 -10 -45 0 -41 -2 -45 -25 -45 l-25 0
0 160 0 161 68 -3 c52 -2 67 -6 67 -18z m15 -50 c0 -26 -3 -29 -27 -25 -74 9
-88 42 -20 48 23 2 43 4 45 5 1 1 2 -11 2 -28z m190 -70 l20 -20 -27 -11 c-63
-24 -89 -23 -111 6 -28 35 -27 42 1 48 39 9 97 -3 117 -23z m-350 -155 c0 -23
-4 -25 -47 -25 -49 0 -50 3 -6 31 39 25 53 23 53 -6z m55 -120 c0 -13 -8 -21
-22 -23 -19 -3 -23 1 -23 23 0 22 4 26 23 23 14 -2 22 -10 22 -23z m128 -436
c17 -1 35 -1 40 0 4 0 7 -2 7 -7 0 -12 -43 -37 -75 -42 -22 -4 -31 -11 -33
-27 -4 -26 -64 -65 -124 -81 -47 -13 -78 6 -78 48 0 71 65 222 173 399 l52 86
3 -187 2 -188 33 -1z m345 -16 l52 -6 -36 -66 c-96 -175 -191 -285 -242 -279
-16 2 -31 12 -39 28 -14 27 -17 188 -6 279 l6 54 71 -5 c46 -4 82 -1 101 7 18
8 32 9 36 4 3 -5 29 -12 57 -16z m282 -3 c0 -5 17 -10 38 -10 29 0 52 -10 95
-42 l58 -43 -3 -101 c-4 -109 -21 -154 -58 -154 -29 0 -102 71 -154 149 -39
59 -106 183 -106 195 0 3 24 7 53 9 28 2 58 4 65 5 6 1 12 -2 12 -8z m176 -24
c1 -1 4 -14 8 -29 l7 -29 -40 29 c-22 15 -41 31 -41 35 0 6 60 0 66 -6z m207
-5 c66 -6 69 -8 82 -38 11 -27 11 -34 -1 -44 -18 -15 -18 -43 1 -59 20 -16 2
-40 -30 -40 -27 0 -170 70 -206 102 -15 13 -29 38 -33 56 l-5 32 62 -1 c34 -1
93 -4 130 -8z"/>
<path d="M2568 3040 c-25 -22 -29 -29 -15 -30 9 0 17 -7 17 -16 0 -12 -7 -15
-31 -12 -23 4 -37 -2 -60 -23 -29 -27 -38 -49 -18 -49 5 0 8 4 5 9 -8 13 14
27 51 34 26 5 35 2 48 -16 l15 -21 0 27 c0 16 5 37 10 48 13 23 52 25 70 4 10
-13 10 -19 -5 -35 -20 -22 -11 -48 11 -29 17 14 19 -2 2 -19 -9 -9 -9 -12 0
-12 6 0 16 9 22 20 8 15 5 30 -12 64 -24 50 -50 65 -75 45 -13 -11 -15 -11
-12 6 2 10 15 22 29 26 24 7 24 7 3 8 -13 1 -37 -12 -55 -29z"/>
<path d="M2678 3023 c11 -21 30 -47 43 -58 l23 -20 -22 32 c-12 17 -22 38 -22
47 0 8 -9 20 -21 26 l-20 11 19 -38z"/>
<path d="M2489 3004 c-7 -9 -39 -29 -71 -45 -58 -29 -66 -41 -48 -69 9 -13 11
-13 20 0 6 10 6 16 0 18 -21 7 -8 23 38 46 40 20 96 66 80 66 -3 0 -11 -7 -19
-16z"/>
<path d="M2750 2979 l32 -47 -27 -53 c-21 -43 -22 -49 -6 -29 33 40 24 7 -11
-41 -22 -32 -25 -39 -9 -24 31 27 51 68 51 105 0 38 19 31 21 -8 2 -24 2 -24
6 -4 2 12 9 19 15 16 19 -12 -11 30 -58 81 l-46 50 32 -46z"/>
<path d="M2706 2900 c-25 -30 -37 -88 -16 -75 6 3 10 16 10 27 0 12 10 32 22
45 12 13 19 25 16 28 -3 3 -17 -8 -32 -25z"/>
<path d="M2597 2884 c-3 -3 6 -16 20 -30 26 -26 37 -27 28 -3 -6 17 -41 40
-48 33z"/>
<path d="M2827 2845 c-4 -22 -7 -53 -7 -68 0 -51 -49 -119 -50 -69 -1 16 -1
16 -11 0 -5 -10 -7 -29 -3 -43 l6 -25 29 36 c16 20 29 41 29 46 0 5 5 6 10 3
6 -4 9 5 8 24 -3 35 15 43 21 9 1 -13 8 -26 14 -30 14 -9 -9 -78 -31 -94 -8
-5 -17 -32 -20 -60 -4 -43 -3 -48 10 -36 9 7 18 29 22 50 3 21 13 53 22 72 15
28 16 42 7 84 -6 28 -20 71 -30 96 l-20 44 -6 -39z"/>
<path d="M2405 2830 c3 -5 12 -10 20 -10 8 0 17 5 20 10 4 6 -5 10 -20 10 -15
0 -24 -4 -20 -10z"/>
<path d="M2475 2830 c3 -5 8 -10 11 -10 2 0 4 5 4 10 0 6 -5 10 -11 10 -5 0
-7 -4 -4 -10z"/>
<path d="M1342 2819 c-13 -5 -28 -7 -33 -3 -5 3 -9 1 -9 -5 0 -5 6 -11 13 -14
17 -5 47 4 47 15 0 5 4 7 9 3 15 -9 71 -13 76 -5 2 4 -6 6 -18 6 -12 -1 -31 1
-42 5 -11 3 -31 3 -43 -2z"/>
<path d="M2759 2787 c-25 -31 -61 -92 -42 -72 30 32 84 105 77 104 -5 0 -21
-15 -35 -32z"/>
<path d="M2458 2797 c-30 -12 -36 -38 -14 -56 12 -10 13 -9 9 7 -3 14 1 22 16
27 12 3 21 13 21 21 0 8 -1 14 -2 13 -2 -1 -15 -6 -30 -12z"/>
<path d="M2523 2762 c-47 -30 -58 -48 -15 -26 35 18 80 54 67 53 -5 0 -29 -13
-52 -27z"/>
<path d="M2596 2773 c-6 -14 -5 -15 5 -6 7 7 10 15 7 18 -3 3 -9 -2 -12 -12z"/>
<path d="M2670 2760 c-10 -19 -10 -20 9 -8 22 13 28 28 11 28 -5 0 -14 -9 -20
-20z"/>
<path d="M1340 2750 c0 -5 5 -10 10 -10 6 0 10 5 10 10 0 6 -4 10 -10 10 -5 0
-10 -4 -10 -10z"/>
<path d="M1375 2750 c3 -5 8 -10 11 -10 2 0 4 5 4 10 0 6 -5 10 -11 10 -5 0
-7 -4 -4 -10z"/>
<path d="M2586 2713 c-13 -17 -21 -22 -24 -14 -3 8 -14 3 -33 -15 -26 -25 -29
-26 -29 -8 0 11 6 26 13 34 10 12 9 12 -5 1 -20 -15 -25 -71 -7 -71 7 0 17 6
23 14 6 8 21 17 33 21 20 5 23 2 29 -34 4 -23 8 -41 9 -41 31 0 46 34 20 44
-11 4 -13 16 -8 51 3 25 4 45 2 45 -2 0 -13 -13 -23 -27z"/>
<path d="M2632 2703 c-6 -11 -7 -25 -3 -32 6 -9 10 -4 14 16 6 34 2 41 -11 16z"/>
<path d="M1325 2700 c-4 -6 -1 -18 6 -26 11 -14 13 -14 21 0 15 26 -12 51 -27
26z"/>
<path d="M1374 2685 c-1 -14 2 -23 6 -20 5 3 11 1 15 -5 3 -5 11 -10 16 -10 6
0 8 4 5 9 -4 5 -1 11 6 13 7 3 9 12 5 22 -4 10 -12 14 -19 10 -9 -6 -9 -9 0
-12 7 -2 10 -8 6 -13 -10 -16 -24 -10 -24 11 0 29 -15 25 -16 -5z"/>
<path d="M1302 2675 c0 -16 2 -22 5 -12 2 9 2 23 0 30 -3 6 -5 -1 -5 -18z"/>
<path d="M2771 2599 c-18 -22 -31 -42 -29 -45 6 -5 56 44 69 68 18 33 -7 19
-40 -23z"/>
<path d="M2744 2598 l-19 -23 23 19 c21 18 27 26 19 26 -2 0 -12 -10 -23 -22z"/>
<path d="M2799 2413 c-10 -12 -11 -15 -1 -9 7 4 23 1 36 -8 29 -19 42 -9 19
16 -20 22 -37 23 -54 1z"/>
<path d="M2769 2373 c-13 -16 -12 -17 4 -4 16 13 21 21 13 21 -2 0 -10 -8 -17
-17z"/>
<path d="M2819 2343 c-13 -16 -12 -17 4 -4 16 13 21 21 13 21 -2 0 -10 -8 -17
-17z"/>
<path d="M2570 2344 c0 -3 14 -19 31 -37 l30 -32 -23 37 c-20 33 -38 48 -38
32z"/>
<path d="M2735 2330 c-18 -20 -18 -21 0 -38 18 -16 18 -16 6 1 -12 15 -11 20
4 37 10 11 16 20 13 20 -3 0 -13 -9 -23 -20z"/>
<path d="M2550 2324 c1 -12 20 -36 45 -54 11 -8 7 1 -10 20 -16 19 -31 37 -32
39 -2 2 -3 0 -3 -5z"/>
<path d="M2790 2305 c-6 -8 -10 -19 -8 -24 1 -6 8 1 15 14 13 28 11 31 -7 10z"/>
<path d="M2700 2296 c0 -2 8 -10 18 -17 15 -13 16 -12 3 4 -13 16 -21 21 -21
13z"/>
<path d="M2690 2265 c13 -14 26 -25 28 -25 3 0 -5 11 -18 25 -13 14 -26 25
-28 25 -3 0 5 -11 18 -25z"/>
<path d="M2662 2240 c17 -16 38 -30 47 -29 12 0 11 2 -4 8 -11 5 -29 18 -39
30 -11 11 -23 21 -27 21 -5 0 5 -13 23 -30z"/>
<path d="M2797 2240 c3 -11 9 -20 15 -20 5 0 4 9 -2 20 -6 11 -12 20 -14 20
-2 0 -2 -9 1 -20z"/>
<path d="M2635 2216 c0 -14 5 -22 12 -19 9 4 10 10 2 24 -13 24 -14 24 -14 -5z"/>
<path d="M2609 2163 c-13 -16 -12 -17 4 -4 16 13 21 21 13 21 -2 0 -10 -8 -17
-17z"/>
<path d="M2676 2151 l-20 -26 25 20 c13 11 25 21 27 21 2 1 0 4 -5 7 -4 3 -17
-7 -27 -22z"/>
<path d="M2816 2131 c-17 -6 -17 -8 -4 -14 10 -3 19 0 22 9 3 8 4 14 3 13 -1
0 -11 -4 -21 -8z"/>
<path d="M2574 2119 c-3 -6 2 -18 12 -27 17 -16 17 -16 5 0 -7 9 -10 22 -6 28
3 5 4 10 1 10 -3 0 -8 -5 -12 -11z"/>
<path d="M2639 2103 c-13 -16 -12 -17 4 -4 16 13 21 21 13 21 -2 0 -10 -8 -17
-17z"/>
<path d="M677 1970 c-45 -36 -29 -110 24 -110 26 0 24 15 -6 34 -21 14 -23 20
-15 36 13 25 56 36 75 20 9 -8 12 -22 8 -41 -7 -37 13 -39 29 -4 10 22 8 30
-9 53 -26 35 -70 40 -106 12z"/>
<path d="M3126 1931 c-9 -10 -19 -34 -23 -53 l-5 -35 67 -13 c77 -15 85 -10
85 52 0 27 -6 41 -22 52 -31 22 -81 20 -102 -3z m75 -21 c24 -13 27 -65 3 -56
-9 3 -23 6 -32 6 -33 0 -45 15 -33 39 13 23 32 27 62 11z"/>
<path d="M743 1852 c-62 -25 -76 -38 -50 -48 16 -6 127 42 127 55 0 19 -16 18
-77 -7z"/>
<path d="M763 1800 l-63 -29 21 -48 c24 -56 25 -57 38 -49 6 4 4 19 -5 43 -13
29 -13 37 -2 44 9 6 18 -2 31 -28 22 -42 45 -33 26 11 -9 19 -9 30 -1 38 8 8
15 1 26 -26 14 -35 36 -49 36 -23 0 13 -37 97 -42 96 -2 0 -31 -13 -65 -29z"/>
<path d="M3074 1795 c-8 -21 95 -130 110 -115 6 6 5 14 -3 24 -17 20 -3 66 19
66 17 0 37 17 29 25 -2 1 -37 6 -76 10 -63 6 -74 4 -79 -10z m78 -37 c-11 -11
-32 -3 -32 12 0 4 9 6 21 3 13 -4 17 -9 11 -15z"/>
<path d="M3036 1706 c-14 -25 -26 -49 -26 -55 0 -17 18 -13 28 6 9 15 14 14
55 -10 51 -30 67 -33 67 -13 0 7 -20 24 -45 37 -38 20 -45 28 -40 46 10 40
-13 34 -39 -11z"/>
<path d="M825 1689 c-27 -16 -54 -30 -60 -33 -6 -2 -6 -8 2 -16 9 -10 16 -9
34 4 37 25 42 19 18 -23 -12 -22 -19 -47 -15 -56 5 -15 10 -14 49 8 23 13 53
30 66 37 15 8 20 15 13 22 -6 6 -20 4 -40 -6 -44 -23 -46 -21 -19 27 22 38 26
69 9 66 -4 -1 -29 -14 -57 -30z"/>
<path d="M2984 1608 c-11 -13 -42 -52 -69 -87 l-49 -64 50 -43 c55 -49 61 -51
81 -26 53 66 55 97 3 47 -23 -22 -33 -26 -42 -17 -9 9 -6 18 12 37 17 18 21
28 13 36 -7 7 -16 3 -31 -15 -19 -25 -42 -35 -42 -17 0 4 9 20 21 35 11 14 17
30 14 36 -11 18 4 11 58 -25 28 -19 55 -35 59 -35 16 0 7 30 -12 40 -31 17
-24 30 18 30 36 0 62 14 62 32 0 4 -15 8 -33 8 -24 0 -35 6 -42 23 -14 30 -46
33 -71 5z m37 -47 c-7 -12 -17 -18 -26 -15 -19 8 -19 13 2 36 21 24 39 8 24
-21z"/>
<path d="M905 1591 c-32 -13 -57 -48 -57 -78 0 -49 72 -84 80 -39 3 14 0 17
-12 13 -8 -3 -22 1 -31 9 -20 20 -4 51 31 60 28 7 40 -1 46 -30 5 -33 28 -31
28 2 0 21 -8 37 -26 51 -29 23 -30 23 -59 12z"/>
<path d="M964 1457 l-52 -41 21 -28 c15 -20 26 -26 42 -22 28 7 63 -29 46 -49
-9 -11 -8 -17 3 -27 13 -10 20 -1 46 56 29 64 32 94 12 94 -5 0 -37 -11 -71
-26 -35 -14 -65 -23 -67 -21 -3 2 18 22 46 43 47 35 57 54 34 60 -5 1 -32 -16
-60 -39z m85 -78 c-8 -16 -14 -18 -22 -10 -9 9 -8 14 3 21 24 16 31 11 19 -11z"/>
<path d="M2811 1404 c-17 -14 -31 -31 -31 -38 0 -6 22 -33 48 -59 l49 -48 32
36 c35 41 38 72 6 89 -11 6 -26 19 -33 29 -18 23 -35 21 -71 -9z m49 -18 c0
-7 -6 -19 -14 -25 -19 -16 -32 5 -16 24 16 19 30 19 30 1z m50 -40 c0 -22 -29
-41 -42 -28 -8 8 -8 15 2 27 16 19 40 20 40 1z"/>
<path d="M2745 1351 c-7 -13 20 -53 63 -94 41 -40 51 -17 14 31 -44 55 -69 75
-77 63z"/>
<path d="M1227 1286 c-3 -8 1 -17 9 -20 20 -8 18 -21 -12 -66 -23 -35 -26 -60
-6 -60 5 0 21 22 36 49 27 45 31 48 52 39 l24 -11 -29 -53 c-31 -58 -31 -59
26 -88 39 -19 53 -20 53 -3 0 7 -16 21 -36 30 -30 15 -34 20 -24 32 11 13 15
13 33 0 26 -18 47 -19 47 -2 0 7 -14 18 -30 24 -21 8 -28 16 -24 27 5 13 9 13
40 -1 33 -16 63 -9 34 8 -84 51 -184 109 -186 109 -1 0 -4 -6 -7 -14z"/>
<path d="M2656 1281 c-7 -11 73 -117 86 -113 21 6 68 46 68 59 0 18 -7 16 -40
-7 l-27 -19 -32 44 c-32 45 -45 53 -55 36z"/>
<path d="M1087 1240 c-21 -24 -21 -30 -3 -30 20 0 41 29 30 40 -6 6 -16 2 -27
-10z"/>
<path d="M2548 1219 c-11 -6 -18 -22 -18 -39 l0 -29 -30 17 c-22 13 -32 14
-40 6 -9 -9 -1 -18 30 -35 23 -13 49 -37 57 -53 21 -40 41 -20 23 24 -8 19
-10 48 -7 75 4 25 6 45 4 45 -1 0 -10 -5 -19 -11z"/>
<path d="M1444 1155 c-12 -8 -27 -28 -34 -45 -11 -28 -11 -34 7 -58 22 -30 66
-40 88 -22 22 18 8 30 -25 23 -34 -6 -46 11 -36 52 9 36 35 43 57 17 19 -24
39 -29 39 -9 0 18 -12 32 -37 46 -28 14 -34 14 -59 -4z"/>
<path d="M2203 1133 c-4 -9 -1 -19 5 -21 7 -2 9 -8 6 -14 -8 -12 15 -118 28
-132 5 -6 12 -6 18 0 10 10 -14 120 -31 140 -5 6 -7 19 -3 28 3 9 1 16 -5 16
-7 0 -15 -8 -18 -17z"/>
<path d="M1543 1065 c-12 -36 -17 -67 -12 -71 15 -9 27 4 34 37 8 36 16 31 30
-19 17 -61 39 -52 60 23 9 36 15 68 12 71 -11 11 -25 -6 -32 -37 -8 -36 -16
-31 -30 19 -17 60 -38 52 -62 -23z"/>
<path d="M2302 1113 c-16 -30 -25 -143 -12 -143 7 0 14 9 17 20 6 24 48 37 68
20 8 -6 21 -10 30 -8 12 2 6 17 -30 66 -48 66 -59 72 -73 45z m42 -64 c-10
-16 -24 -9 -24 12 0 18 2 19 15 9 8 -7 12 -16 9 -21z"/>
<path d="M1704 1090 c-30 -12 -49 -71 -33 -102 16 -31 28 -38 65 -38 40 0 64
27 64 71 0 40 -7 52 -37 68 -25 13 -30 13 -59 1z m54 -32 c34 -34 -7 -108 -44
-77 -27 22 -12 89 21 89 6 0 16 -5 23 -12z"/>
<path d="M2090 1070 c-11 -11 -20 -25 -20 -31 0 -7 -9 0 -21 15 -42 53 -119
21 -119 -49 0 -43 29 -75 68 -75 29 0 62 26 62 48 0 17 6 15 34 -13 45 -45
116 -22 116 36 0 28 -2 30 -32 27 -35 -3 -52 -28 -19 -28 30 0 26 -18 -6 -26
-19 -5 -30 -2 -40 11 -29 40 -4 82 42 71 33 -9 50 1 34 20 -17 21 -76 17 -99
-6z m-61 -42 c17 -46 -21 -86 -54 -58 -18 15 -19 52 -3 68 19 19 48 14 57 -10z"/>
<path d="M1818 1013 c-3 -38 -4 -69 -3 -71 1 -1 25 -5 54 -9 43 -5 51 -3 51
11 0 12 -9 16 -35 16 l-35 0 0 60 c0 44 -4 60 -14 60 -10 0 -15 -19 -18 -67z"/>
</g>
</svg>
